<svg width="18" height="24" viewBox="0 0 18 24" fill="none" xmlns="http://www.w3.org/2000/svg">
<path d="M10.2773 6.2398V0H1.10114C0.490925 0 0 0.490925 0 1.10114V22.3899C0 23.0001 0.490925 23.491 1.10114 23.491H16.5171C17.1273 23.491 17.6182 23.0001 17.6182 22.3899V7.34094H11.3785C10.7728 7.34094 10.2773 6.84542 10.2773 6.2398ZM13.2137 17.0677C13.2137 17.3705 12.9659 17.6182 12.6631 17.6182H4.95513C4.65232 17.6182 4.40456 17.3705 4.40456 17.0677V16.7006C4.40456 16.3978 4.65232 16.1501 4.95513 16.1501H12.6631C12.9659 16.1501 13.2137 16.3978 13.2137 16.7006V17.0677ZM13.2137 14.1313C13.2137 14.4341 12.9659 14.6819 12.6631 14.6819H4.95513C4.65232 14.6819 4.40456 14.4341 4.40456 14.1313V13.7643C4.40456 13.4614 4.65232 13.2137 4.95513 13.2137H12.6631C12.9659 13.2137 13.2137 13.4614 13.2137 13.7643V14.1313ZM13.2137 10.8279V11.1949C13.2137 11.4977 12.9659 11.7455 12.6631 11.7455H4.95513C4.65232 11.7455 4.40456 11.4977 4.40456 11.1949V10.8279C4.40456 10.5251 4.65232 10.2773 4.95513 10.2773H12.6631C12.9659 10.2773 13.2137 10.5251 13.2137 10.8279ZM17.6182 5.59288V5.87275H11.7455V0H12.0254C12.319 0 12.5989 0.114702 12.8053 0.321166L17.2971 4.81749C17.5035 5.02395 17.6182 5.30383 17.6182 5.59288Z" fill="#0089E4"/>
</svg>
