<svg width="30" height="30" viewBox="0 0 30 30" fill="none" xmlns="http://www.w3.org/2000/svg">
<circle cx="15" cy="15" r="14.5" stroke="#F7F7F7"/>
<path d="M18.6507 10.2224C18.6507 10.1382 18.6146 10.0575 18.5503 9.99793C18.4861 9.93839 18.3989 9.90494 18.308 9.90494H16.5947C15.7319 9.86512 14.8872 10.1433 14.2452 10.6787C13.6031 11.2141 13.2158 11.9632 13.168 12.7623V14.4766H11.4547C11.3638 14.4766 11.2766 14.5101 11.2124 14.5696C11.1481 14.6292 11.112 14.7099 11.112 14.7941V16.445C11.112 16.5292 11.1481 16.61 11.2124 16.6695C11.2766 16.729 11.3638 16.7625 11.4547 16.7625H13.168V21.0167C13.168 21.1009 13.2041 21.1817 13.2684 21.2412C13.3326 21.3007 13.4198 21.3342 13.5107 21.3342H15.5667C15.6576 21.3342 15.7447 21.3007 15.809 21.2412C15.8732 21.1817 15.9094 21.1009 15.9094 21.0167V16.7625H17.7049C17.7811 16.7635 17.8555 16.741 17.9163 16.6984C17.9772 16.6559 18.0209 16.5957 18.0407 16.5276L18.5342 14.8767C18.5478 14.8298 18.5497 14.7806 18.5395 14.7329C18.5294 14.6852 18.5077 14.6404 18.4759 14.6017C18.4441 14.5631 18.4032 14.5317 18.3562 14.51C18.3093 14.4883 18.2577 14.4769 18.2052 14.4766H15.9094V12.7623C15.9264 12.6051 16.0061 12.4594 16.1328 12.3538C16.2595 12.2481 16.4242 12.19 16.5947 12.1908H18.308C18.3989 12.1908 18.4861 12.1573 18.5503 12.0978C18.6146 12.0383 18.6507 11.9575 18.6507 11.8733V10.2224Z" fill="#F7F7F7"/>
</svg>
