<svg width="30" height="30" viewBox="0 0 30 30" fill="none" xmlns="http://www.w3.org/2000/svg">
<circle cx="15" cy="15.0001" r="14.5" stroke="#F7F7F7"/>
<path d="M17.743 14.3176C17.743 15.9769 16.2911 17.322 14.5002 17.322C12.7092 17.322 11.2574 15.9769 11.2574 14.3176C11.2574 13.8501 11.376 13.4093 11.5815 13.0148H8V20.0407C8 20.6848 8.56875 21.2117 9.26389 21.2117H19.7361C20.4312 21.2117 21 20.6848 21 20.0407V13.0148H17.4187C17.6243 13.4093 17.743 13.8501 17.743 14.3176Z" fill="#F7F7F7"/>
<path d="M19.7361 9H9.26389C8.56875 9 8 9.52694 8 10.171V12.513H11.9117C12.5036 11.7854 13.441 11.3132 14.5 11.3132C15.559 11.3132 16.4964 11.7854 17.0883 12.513H21V10.171C21 9.52694 20.4312 9 19.7361 9ZM9.03928 11.9636H8.56875V10.2749C8.56875 9.97944 8.76303 9.72634 9.03946 9.61878L9.03928 11.9636ZM9.81025 11.9636H9.36446V9.56341H9.81025V11.9636ZM10.581 11.9636H10.1353V9.56341H10.581V11.9636ZM11.3513 10.2749V11.2521V11.9636H10.906V9.56341H11.3513V10.2749ZM20.3412 11.2521C20.3412 11.6453 19.9974 11.9636 19.5736 11.9636H18.3262C17.9022 11.9636 17.5584 11.6453 17.5584 11.2521V10.2749C17.5584 9.88175 17.9022 9.56341 18.3262 9.56341H19.5736C19.9976 9.56341 20.3412 9.88175 20.3412 10.2749V11.2521Z" fill="#F7F7F7"/>
<path d="M14.5002 16.9708C16.0775 16.9708 17.3562 15.7856 17.3562 14.3246C17.3562 12.8634 16.0777 11.6782 14.5002 11.6782C12.9225 11.6782 11.6438 12.8634 11.6438 14.3246C11.6438 15.7855 12.9225 16.9708 14.5002 16.9708ZM14.5 12.2161C15.7567 12.2161 16.7757 13.1601 16.7757 14.3246C16.7757 15.4889 15.7569 16.433 14.5 16.433C13.2432 16.433 12.2243 15.489 12.2243 14.3246C12.2245 13.16 13.2433 12.2161 14.5 12.2161Z" fill="#F7F7F7"/>
</svg>
