<svg width="48" height="48" viewBox="0 0 48 48" fill="none" xmlns="http://www.w3.org/2000/svg">
<g clip-path="url(#clip0_20_31)">
<path d="M43 36H5V40H43V36Z" fill="white"/>
<path d="M44 42H4C3.46957 42 2.96086 42.2107 2.58579 42.5858C2.21071 42.9609 2 43.4696 2 44V46H46V44C46 43.4696 45.7893 42.9609 45.4142 42.5858C45.0391 42.2107 44.5304 42 44 42Z" fill="white"/>
<path d="M14 18H10V34H14V18Z" fill="white"/>
<path d="M26 18H22V34H26V18Z" fill="white"/>
<path d="M38 18H34V34H38V18Z" fill="white"/>
<path d="M44.9 11.4L24 2L3.1 11.4C2.77416 11.5763 2.50078 11.8357 2.30758 12.1519C2.11439 12.468 2.00827 12.8296 2 13.2V14C2 14.5304 2.21071 15.0391 2.58579 15.4142C2.96086 15.7893 3.46957 16 4 16H44C44.5304 16 45.0391 15.7893 45.4142 15.4142C45.7893 15.0391 46 14.5304 46 14V13.2C45.9917 12.8296 45.8856 12.468 45.6924 12.1519C45.4992 11.8357 45.2258 11.5763 44.9 11.4Z" fill="white"/>
</g>
<defs>
<clipPath id="clip0_20_31">
<rect width="48" height="48" fill="white"/>
</clipPath>
</defs>
</svg>
