<svg width="48" height="48" viewBox="0 0 48 48" fill="none" xmlns="http://www.w3.org/2000/svg">
<g clip-path="url(#clip0_22_45)">
<path d="M41.92 0H6.07997C5.19637 0 4.47993 0.716344 4.47993 1.60003V46.4001C4.47993 47.2837 5.19628 48.0001 6.07997 48.0001H41.9199C42.8035 48.0001 43.52 47.2837 43.52 46.4001V1.60003C43.52 0.716344 42.8036 0 41.92 0ZM15.68 8.53331H32.3199C33.2035 8.53331 33.92 9.24966 33.92 10.1333C33.92 11.0169 33.2036 11.7334 32.3199 11.7334H15.68C14.7964 11.7334 14.0799 11.017 14.0799 10.1333C14.08 9.24975 14.7964 8.53331 15.68 8.53331ZM24 43.0933C21.6473 43.0933 19.7333 41.1793 19.7333 38.8267C19.7333 36.474 21.6473 34.56 24 34.56C26.3527 34.56 28.2667 36.474 28.2667 38.8267C28.2667 41.1793 26.3527 43.0933 24 43.0933ZM35.7334 40.4267H32.32C31.4364 40.4267 30.72 39.7103 30.72 38.8267C30.72 37.943 31.4363 37.2266 32.32 37.2266H35.7334C36.617 37.2266 37.3334 37.943 37.3334 38.8267C37.3334 39.7103 36.617 40.4267 35.7334 40.4267ZM35.7334 30.72H12.2666C11.383 30.72 10.6666 30.0037 10.6666 29.12C10.6666 28.2363 11.3829 27.5199 12.2666 27.5199H35.7333C36.6169 27.5199 37.3333 28.2363 37.3333 29.12C37.3333 30.0037 36.617 30.72 35.7334 30.72ZM35.7334 24.4267H12.2666C11.383 24.4267 10.6666 23.7103 10.6666 22.8266C10.6666 21.9429 11.3829 21.2266 12.2666 21.2266H35.7333C36.6169 21.2266 37.3333 21.9429 37.3333 22.8266C37.3333 23.7103 36.617 24.4267 35.7334 24.4267ZM35.7334 18.1333H12.2666C11.383 18.1333 10.6666 17.417 10.6666 16.5333C10.6666 15.6497 11.3829 14.9332 12.2666 14.9332H35.7333C36.6169 14.9332 37.3333 15.6496 37.3333 16.5333C37.3333 17.417 36.617 18.1333 35.7334 18.1333Z" fill="white"/>
</g>
<defs>
<clipPath id="clip0_22_45">
<rect width="48" height="48" fill="white"/>
</clipPath>
</defs>
</svg>
