<svg width="126" height="25" viewBox="0 0 126 25" fill="none" xmlns="http://www.w3.org/2000/svg">
<g clip-path="url(#clip0_10_116)">
<path fill-rule="evenodd" clip-rule="evenodd" d="M15.9407 7.30331C14.9149 6.61656 13.7089 6.25 12.4752 6.25V0C14.9426 0 17.3546 0.733113 19.4061 2.10663C21.4577 3.48014 23.0566 5.43238 24.0009 7.71644C24.9451 10.0005 25.1921 12.5139 24.7108 14.9386C24.2294 17.3634 23.0413 19.5907 21.2966 21.3388C19.5519 23.087 17.329 24.2775 14.909 24.7598C12.4891 25.2421 9.9807 24.9946 7.70116 24.0485C5.42162 23.1024 3.47325 21.5002 2.10246 19.4446C0.731661 17.389 0 14.9722 0 12.5H6.23762C6.23762 13.7361 6.60346 14.9445 7.28885 15.9723C7.97424 17.0001 8.94843 17.8012 10.0882 18.2743C11.228 18.7473 12.4822 18.8711 13.6921 18.6299C14.9021 18.3888 16.0135 17.7935 16.8859 16.9194C17.7583 16.0453 18.3523 14.9317 18.593 13.7193C18.8337 12.5069 18.7102 11.2503 18.2381 10.1083C17.7659 8.96619 16.9665 7.99006 15.9407 7.30331Z" fill="white"/>
<path fill-rule="evenodd" clip-rule="evenodd" d="M6.23762 3.30308e-06C6.23762 0.820765 6.07628 1.63349 5.76281 2.39178C5.44934 3.15006 4.98988 3.83905 4.41066 4.41942C3.83145 4.99979 3.14382 5.46016 2.38704 5.77425C1.63025 6.08834 0.819134 6.25 2.72653e-07 6.25L0 12.5C1.63827 12.5 3.2605 12.1767 4.77407 11.5485C6.28765 10.9203 7.66292 9.99957 8.82131 8.83881C9.97976 7.67813 10.8987 6.30013 11.5256 4.78355C12.1526 3.26697 12.4752 1.64152 12.4752 0L6.23762 3.30308e-06Z" fill="white"/>
<path d="M78.3564 9.03284H75.3299V18.6655H78.3564V9.03284Z" fill="white"/>
<path d="M75.6667 7.22912C75.983 7.54625 76.3785 7.70481 76.8531 7.70481C77.3278 7.70481 77.717 7.54625 78.0202 7.22912C78.324 6.89881 78.4755 6.50237 78.4755 6.03991C78.4755 5.56423 78.324 5.16781 78.0202 4.85069C77.717 4.53356 77.3278 4.375 76.8531 4.375C76.3785 4.375 75.983 4.53356 75.6667 4.85069C75.363 5.16781 75.2114 5.56423 75.2114 6.03991C75.2114 6.50237 75.363 6.89881 75.6667 7.22912Z" fill="white"/>
<path d="M31.9093 18.6655V4.6723H35.015V15.9303H41.2065V18.6655H31.9093Z" fill="white"/>
<path fill-rule="evenodd" clip-rule="evenodd" d="M46.7993 18.8835C45.8102 18.8835 44.9135 18.6655 44.1091 18.2294C43.3178 17.7802 42.6914 17.1724 42.2298 16.4059C41.7683 15.6396 41.5375 14.7807 41.5375 13.8293C41.5375 12.8779 41.7683 12.0257 42.2298 11.2725C42.6914 10.5193 43.3178 9.9247 44.1091 9.4887C44.9003 9.03938 45.7971 8.81476 46.7993 8.81476C47.8015 8.81476 48.6983 9.03282 49.4895 9.46882C50.2807 9.90488 50.9072 10.5061 51.3687 11.2725C51.8303 12.0257 52.0611 12.8779 52.0611 13.8293C52.0611 14.7807 51.8303 15.6396 51.3687 16.4059C50.9072 17.1724 50.2807 17.7802 49.4895 18.2294C48.6983 18.6655 47.8015 18.8835 46.7993 18.8835ZM46.7993 16.1285C47.2345 16.1285 47.6169 16.036 47.9466 15.851C48.2763 15.6528 48.5269 15.3819 48.6983 15.0384C48.8829 14.6816 48.9752 14.2786 48.9752 13.8293C48.9752 13.3801 48.8829 12.9903 48.6983 12.6599C48.5136 12.3164 48.2565 12.0521 47.9268 11.8671C47.6103 11.6689 47.2345 11.5698 46.7993 11.5698C46.3773 11.5698 46.0015 11.6689 45.6718 11.8671C45.3421 12.0521 45.0849 12.3164 44.9003 12.6599C44.7157 13.0035 44.6234 13.3999 44.6234 13.8491C44.6234 14.2852 44.7157 14.6816 44.9003 15.0384C45.0849 15.3819 45.3421 15.6528 45.6718 15.851C46.0015 16.036 46.3773 16.1285 46.7993 16.1285Z" fill="white"/>
<path fill-rule="evenodd" clip-rule="evenodd" d="M54.458 22.4313C55.2624 22.8013 56.1921 22.9863 57.2472 22.9863C58.2757 22.9863 59.1923 22.7815 59.9967 22.3718C60.8012 21.9622 61.4341 21.3941 61.8957 20.6673C62.3572 19.9406 62.5883 19.0817 62.5883 18.0907V9.03278H59.6208V9.67997C59.4001 9.49385 59.1495 9.3376 58.8692 9.21116C58.3548 8.9601 57.768 8.83453 57.1087 8.83453C56.2251 8.83453 55.4404 9.04597 54.7547 9.46878C54.0689 9.87841 53.5283 10.4466 53.1326 11.1733C52.737 11.8869 52.5392 12.6929 52.5392 13.5915C52.5392 14.4768 52.737 15.2828 53.1326 16.0095C53.5283 16.7363 54.0689 17.3111 54.7547 17.7339C55.4404 18.1567 56.2251 18.3682 57.1087 18.3682C57.7548 18.3682 58.3417 18.2427 58.8692 17.9916C59.1247 17.87 59.3555 17.7267 59.5615 17.5616V18.17C59.5615 18.8438 59.3439 19.3658 58.9087 19.7358C58.4868 20.1058 57.8999 20.2907 57.1482 20.2907C56.5416 20.2907 56.0207 20.185 55.5855 19.9736C55.1635 19.7622 54.781 19.4517 54.4382 19.042L52.5788 20.9052C53.0403 21.5658 53.6668 22.0746 54.458 22.4313ZM58.7703 15.3951C58.4669 15.5801 58.1043 15.6726 57.6823 15.6726C57.2603 15.6726 56.891 15.5801 56.5746 15.3951C56.2712 15.2101 56.0339 14.959 55.8625 14.6419C55.691 14.3116 55.6053 13.9614 55.6053 13.5915C55.6053 13.195 55.691 12.8383 55.8625 12.5212C56.0339 12.204 56.2778 11.953 56.5943 11.768C56.9108 11.583 57.2735 11.4905 57.6823 11.4905C58.1043 11.4905 58.4669 11.583 58.7703 11.768C59.0868 11.953 59.3241 12.204 59.4824 12.5212C59.6538 12.8383 59.7395 13.195 59.7395 13.5915C59.7395 13.9878 59.6538 14.3446 59.4824 14.6617C59.3241 14.9657 59.0868 15.2101 58.7703 15.3951Z" fill="white"/>
<path fill-rule="evenodd" clip-rule="evenodd" d="M68.9576 18.8835C67.9683 18.8835 67.0713 18.6655 66.2673 18.2294C65.4757 17.7802 64.8495 17.1724 64.3879 16.4059C63.9263 15.6396 63.6955 14.7807 63.6955 13.8293C63.6955 12.8779 63.9263 12.0257 64.3879 11.2725C64.8495 10.5193 65.4757 9.9247 66.2673 9.4887C67.0582 9.03938 67.9552 8.81476 68.9576 8.81476C69.9593 8.81476 70.8563 9.03282 71.6472 9.46882C72.4388 9.90488 73.065 10.5061 73.5266 11.2725C73.9882 12.0257 74.219 12.8779 74.219 13.8293C74.219 14.7807 73.9882 15.6396 73.5266 16.4059C73.065 17.1724 72.4388 17.7802 71.6472 18.2294C70.8563 18.6655 69.9593 18.8835 68.9576 18.8835ZM68.9576 16.1285C69.3923 16.1285 69.7747 16.036 70.1047 15.851C70.434 15.6528 70.6848 15.3819 70.8563 15.0384C71.0409 14.6816 71.1332 14.2786 71.1332 13.8293C71.1332 13.3801 71.0409 12.9903 70.8563 12.6599C70.6717 12.3164 70.4147 12.0521 70.0847 11.8671C69.7684 11.6689 69.3923 11.5698 68.9576 11.5698C68.5353 11.5698 68.1591 11.6689 67.8298 11.8671C67.4998 12.0521 67.2428 12.3164 67.0582 12.6599C66.8736 13.0035 66.7812 13.3999 66.7812 13.8491C66.7812 14.2852 66.8736 14.6816 67.0582 15.0384C67.2428 15.3819 67.4998 15.6528 67.8298 15.851C68.1591 16.036 68.5353 16.1285 68.9576 16.1285Z" fill="white"/>
<path fill-rule="evenodd" clip-rule="evenodd" d="M85.6307 18.8637C84.9851 18.8637 84.3913 18.7382 83.8505 18.4871C83.5661 18.355 83.3091 18.1972 83.0795 18.0138V22.7287H80.0923V9.03278H83.1188V9.6976C83.3384 9.51766 83.5823 9.3621 83.8505 9.23097C84.3913 8.96666 84.9851 8.83453 85.6307 8.83453C86.5408 8.83453 87.3455 9.0526 88.0441 9.48866C88.7564 9.92466 89.3103 10.5193 89.7058 11.2725C90.115 12.0257 90.3189 12.8845 90.3189 13.8491C90.3189 14.8137 90.115 15.6726 89.7058 16.4258C89.3103 17.179 88.7564 17.7735 88.0441 18.2096C87.3455 18.6457 86.5408 18.8637 85.6307 18.8637ZM85.0775 16.1285C85.5122 16.1285 85.8884 16.0293 86.2046 15.8312C86.5346 15.633 86.7916 15.362 86.9762 15.0185C87.1608 14.675 87.2531 14.2852 87.2531 13.8491C87.2531 13.3998 87.1608 13.0035 86.9762 12.6599C86.7916 12.3163 86.5346 12.0521 86.2046 11.8671C85.8884 11.6688 85.5191 11.5698 85.0968 11.5698C84.6751 11.5698 84.299 11.6688 83.9697 11.8671C83.6528 12.0521 83.4027 12.3163 83.218 12.6599C83.0334 13.0035 82.9411 13.3998 82.9411 13.8491C82.9411 14.2852 83.0265 14.675 83.1981 15.0185C83.3827 15.362 83.6397 15.633 83.9697 15.8312C84.299 16.0293 84.6683 16.1285 85.0775 16.1285Z" fill="white"/>
<path d="M93.2812 18.6853C93.8351 18.8307 94.3952 18.9033 94.9622 18.9033C96.1623 18.9033 97.1117 18.6259 97.8109 18.0709C98.5226 17.5159 98.8788 16.7694 98.8788 15.8312C98.8788 15.2234 98.7672 14.7344 98.5426 14.3645C98.3187 13.9813 98.0286 13.6774 97.6725 13.4527C97.3163 13.2281 96.9402 13.0497 96.5447 12.9176C96.1492 12.7854 95.7731 12.6731 95.4175 12.5806C95.0614 12.4881 94.7713 12.3824 94.5468 12.2635C94.3228 12.1446 94.2106 11.986 94.2106 11.7878C94.2106 11.6028 94.2967 11.4641 94.4676 11.3716C94.6391 11.2659 94.8961 11.2131 95.2392 11.2131C95.5953 11.2131 95.9577 11.2857 96.327 11.4311C96.7094 11.5764 97.0524 11.8275 97.3556 12.1842L99.0765 10.4401C98.6418 9.88506 98.0748 9.46881 97.3755 9.19137C96.69 8.90068 95.9384 8.75531 95.1206 8.75531C94.3428 8.75531 93.6635 8.88744 93.0834 9.15169C92.5027 9.416 92.0542 9.77937 91.738 10.2418C91.4217 10.6911 91.2633 11.2262 91.2633 11.8473C91.2633 12.4287 91.3756 12.911 91.5995 13.2942C91.8234 13.6641 92.1141 13.9549 92.4696 14.1662C92.8258 14.3777 93.2019 14.5429 93.5974 14.6617C93.9929 14.7807 94.369 14.893 94.7252 14.9987C95.0807 15.0912 95.3714 15.2036 95.5953 15.3357C95.833 15.4546 95.9515 15.633 95.9515 15.8708C95.9515 16.0558 95.8523 16.2011 95.6546 16.3069C95.4699 16.4126 95.1999 16.4654 94.8437 16.4654C94.3291 16.4654 93.8544 16.3729 93.4196 16.1879C92.9843 15.9897 92.6081 15.7189 92.2919 15.3753L90.5709 17.1195C90.9009 17.4762 91.2964 17.7934 91.7579 18.0709C92.2326 18.3351 92.7404 18.5399 93.2812 18.6853Z" fill="white"/>
<path d="M104.398 18.8835C103.515 18.8835 102.73 18.7051 102.044 18.3484C101.371 17.9784 100.844 17.4763 100.462 16.842C100.079 16.1946 99.8881 15.4546 99.8881 14.6221V9.03284H102.915V14.5825C102.915 14.9128 102.967 15.197 103.073 15.4348C103.192 15.6726 103.363 15.8576 103.587 15.9898C103.812 16.1219 104.082 16.188 104.398 16.188C104.846 16.188 105.203 16.0492 105.466 15.7717C105.73 15.481 105.862 15.0846 105.862 14.5825V9.03284H108.888V14.6023C108.888 15.448 108.697 16.1946 108.314 16.842C107.932 17.4763 107.405 17.9784 106.732 18.3484C106.06 18.7051 105.282 18.8835 104.398 18.8835Z" fill="white"/>
<path d="M113.419 9.03278H110.393V18.6655H113.419V13.0365C113.419 12.7062 113.485 12.4287 113.617 12.204C113.762 11.9794 113.954 11.8076 114.191 11.6887C114.429 11.5565 114.699 11.4905 115.002 11.4905C115.437 11.4905 115.8 11.6292 116.09 11.9067C116.393 12.171 116.545 12.5476 116.545 13.0365V18.6655H119.572V13.0365C119.572 12.7062 119.638 12.4287 119.769 12.204C119.915 11.9794 120.105 11.8076 120.343 11.6887C120.58 11.5565 120.851 11.4905 121.154 11.4905C121.589 11.4905 121.952 11.6292 122.242 11.9067C122.545 12.171 122.697 12.5476 122.697 13.0365V18.6655H125.724V12.6995C125.724 11.8935 125.552 11.2064 125.209 10.6382C124.879 10.0568 124.424 9.61416 123.844 9.31028C123.277 8.9931 122.624 8.83453 121.886 8.83453C121.134 8.83453 120.455 8.99972 119.848 9.3301C119.454 9.54053 119.11 9.81216 118.815 10.1449C118.54 9.79685 118.205 9.51203 117.811 9.29041C117.284 8.98653 116.683 8.83453 116.011 8.83453C115.299 8.83453 114.659 8.98653 114.092 9.29041C113.845 9.41685 113.621 9.56828 113.419 9.74472V9.03278Z" fill="white"/>
</g>
<defs>
<clipPath id="clip0_10_116">
<rect width="126" height="25" fill="white"/>
</clipPath>
</defs>
</svg>
