<svg width="48" height="48" viewBox="0 0 48 48" fill="none" xmlns="http://www.w3.org/2000/svg">
<path fill-rule="evenodd" clip-rule="evenodd" d="M22.5 39V41.997L16.5 42C15.672 42 15 42.6735 15 43.5C15 44.328 15.6735 45 16.5 45L31.5 44.9925C32.328 44.9925 33 44.3205 33 43.4925C33 42.6645 32.3265 41.9925 31.5 41.9925L25.5 41.9955V39H40.5C41.694 39 42.8385 38.526 43.6815 37.6815C44.526 36.8385 45 35.694 45 34.5V33.003L3 33V34.5C3 35.694 3.474 36.8385 4.3185 37.6815C5.1615 38.526 6.306 39 7.5 39H22.5ZM3 30L45 30.003V13.5C45 12.306 44.526 11.1615 43.6815 10.3185C42.8385 9.474 41.694 9 40.5 9H7.5C6.306 9 5.1615 9.474 4.3185 10.3185C3.474 11.1615 3 12.306 3 13.5V30ZM22.5 16.503V25.5C22.5 26.328 23.172 27 24 27C24.828 27 25.5 26.328 25.5 25.5V16.503C25.5 15.675 24.828 15.003 24 15.003C23.172 15.003 22.5 15.675 22.5 16.503ZM28.497 17.991V23.991C28.497 24.819 29.1705 25.491 29.997 25.491C30.825 25.491 31.497 24.819 31.497 23.991V17.991C31.497 17.163 30.825 16.491 29.997 16.491C29.1705 16.491 28.497 17.163 28.497 17.991ZM16.5045 17.991V23.991C16.5045 24.819 17.1765 25.491 18.0045 25.491C18.831 25.491 19.5045 24.819 19.5045 23.991V17.991C19.5045 17.163 18.831 16.491 18.0045 16.491C17.1765 16.491 16.5045 17.163 16.5045 17.991ZM34.4955 19.491V22.491C34.4955 23.319 35.1675 23.991 35.9955 23.991C36.8235 23.991 37.4955 23.319 37.4955 22.491V19.491C37.4955 18.663 36.8235 17.991 35.9955 17.991C35.1675 17.991 34.4955 18.663 34.4955 19.491ZM10.506 19.491V22.491C10.506 23.319 11.178 23.991 12.006 23.991C12.834 23.991 13.506 23.319 13.506 22.491V19.491C13.506 18.663 12.834 17.991 12.006 17.991C11.178 17.991 10.506 18.663 10.506 19.491Z" fill="white"/>
</svg>
