<svg width="48" height="48" viewBox="0 0 48 48" fill="none" xmlns="http://www.w3.org/2000/svg">
<path d="M3.40406 16.5C3.46725 16.5362 5.67797 17.7927 7.5 17.7927C9.32203 17.7927 11.6087 16.5362 11.6741 16.5H12.5223C13.8949 16.5041 15 17.6118 15 18.9777V28.5C15 30.1568 13.6568 31.5 12 31.5V42.75C12 43.9927 10.9927 45 9.75 45H5.25C4.00734 45 3 43.9927 3 42.75V31.5C1.34316 31.5 0 30.1568 0 28.5V19.0558C0 17.6469 1.14 16.5043 2.55581 16.5H3.40406ZM19.9041 16.5C19.9672 16.5362 22.1781 17.7927 24 17.7927C25.8219 17.7927 28.1087 16.5362 28.1741 16.5H29.0223C30.3949 16.5041 31.5 17.6118 31.5 18.9777V28.5C31.5 30.1568 30.1568 31.5 28.5 31.5V42.75C28.5 43.9927 27.4927 45 26.25 45H21.75C20.5073 45 19.5 43.9927 19.5 42.75V31.5C17.8432 31.5 16.5 30.1568 16.5 28.5V19.0558C16.5 17.6469 17.64 16.5043 19.0558 16.5H19.9041ZM42.75 45H38.25C37.0073 45 36 43.9927 36 42.75V31.5C34.3432 31.5 33 30.1568 33 28.5V19.0558C33 17.6443 34.1443 16.5 35.5558 16.5H36.4041C36.4041 16.5 38.652 17.7927 40.5 17.7927C42.348 17.7927 44.6741 16.5 44.6741 16.5H45.5223C46.8908 16.5 48 17.6093 48 18.9777V28.5C48 30.1568 46.6568 31.5 45 31.5V42.75C45 43.9896 43.9977 44.9949 42.75 45ZM7.5 15C10.8137 15 13.5 12.3137 13.5 9C13.5 5.68631 10.8137 3 7.5 3C4.18631 3 1.5 5.68631 1.5 9C1.5 12.3137 4.18631 15 7.5 15ZM24 15C27.3137 15 30 12.3137 30 9C30 5.68631 27.3137 3 24 3C20.6863 3 18 5.68631 18 9C18 12.3137 20.6863 15 24 15ZM46.5 9C46.5 12.3137 43.8137 15 40.5 15C37.1863 15 34.5 12.3137 34.5 9C34.5 5.68631 37.1863 3 40.5 3C43.8137 3 46.5 5.68631 46.5 9Z" fill="white"/>
</svg>
