<svg width="30" height="30" viewBox="0 0 30 30" fill="none" xmlns="http://www.w3.org/2000/svg">
<path d="M12.676 20.0168C13.7148 20.049 14.75 19.888 15.7204 19.5432C16.6908 19.1984 17.5768 18.6769 18.326 18.0095C19.0752 17.3421 19.6724 16.5423 20.0823 15.6574C20.4921 14.7725 20.7064 13.8205 20.7124 12.8576C21.1884 12.3118 21.5419 11.6834 21.7521 11.0092C21.7678 10.9559 21.7665 10.8996 21.7484 10.847C21.7304 10.7944 21.6963 10.7477 21.6502 10.7126C21.6042 10.6776 21.5482 10.6556 21.489 10.6493C21.4298 10.643 21.3699 10.6527 21.3165 10.6773C21.0675 10.7883 20.7871 10.8242 20.5149 10.7798C20.2427 10.7355 19.9924 10.6131 19.7992 10.4299C19.5526 10.1797 19.2543 9.97795 18.922 9.83652C18.5896 9.69509 18.2301 9.6169 17.8645 9.60658C17.499 9.59626 17.1349 9.65403 16.7939 9.77645C16.4529 9.89888 16.1419 10.0835 15.8793 10.3193C15.5198 10.6419 15.2565 11.0452 15.1149 11.4899C14.9734 11.9347 14.9584 12.4059 15.0715 12.8576C12.7182 12.9877 11.1025 11.9529 9.80992 10.5341C9.77109 10.4933 9.72029 10.4639 9.66374 10.4495C9.60718 10.4351 9.54731 10.4362 9.49143 10.4528C9.43556 10.4693 9.3861 10.5006 9.3491 10.5428C9.3121 10.585 9.28915 10.6362 9.28306 10.6903C9.03682 11.9558 9.21445 13.2608 9.79209 14.4301C10.3697 15.5993 11.3197 16.5768 12.5145 17.2312C11.7134 18.0824 10.5884 18.6141 9.37438 18.7152C9.30934 18.7252 9.2493 18.7537 9.20266 18.7969C9.15603 18.8401 9.12513 18.8957 9.11429 18.9559C9.10345 19.0162 9.11321 19.0781 9.14222 19.1329C9.17122 19.1878 9.21801 19.2329 9.27604 19.2619C10.3322 19.7509 11.4953 20.0092 12.676 20.0168Z" fill="#F7F7F7"/>
<circle cx="15" cy="15" r="14.5" stroke="#F7F7F7"/>
</svg>
